<?xml version="1.0" encoding="UTF-8"?>
<svg version="1.1" xmlns="http://www.w3.org/2000/svg" width="500" height="500">
<path d="M0 0 C4.35488162 1.93651154 8.29463973 4.44811181 12.3125 7 C14.10247362 8.10457951 15.89688564 9.20171019 17.69142151 10.29885864 C18.93017475 11.05702428 20.16749828 11.81753056 21.40342712 12.58029175 C27.33578204 16.23645738 33.36978094 19.70034349 39.43383789 23.1322937 C57.7657583 33.50955667 75.9748175 44.09825411 94 55 C94.93457031 55.53238281 95.86914062 56.06476563 96.83203125 56.61328125 C99 58 99 58 100 60 C100.10298605 61.55964551 100.14379432 63.12359041 100.15390015 64.68659973 C100.16250061 65.67499344 100.17110107 66.66338715 100.17996216 67.68173218 C100.18635208 69.31424423 100.18635208 69.31424423 100.19287109 70.97973633 C100.20104858 72.12291824 100.20922607 73.26610016 100.21765137 74.44392395 C100.2425341 78.23995432 100.2590278 82.03594726 100.2734375 85.83203125 C100.27876118 87.1257987 100.28408485 88.41956615 100.28956985 89.75253868 C100.31080452 95.18870984 100.32993466 100.62486878 100.34119225 106.06107044 C100.35743128 113.85149892 100.3906076 121.64142862 100.44759309 129.43166906 C100.49096234 135.56980132 100.50693721 141.70773791 100.51332474 147.84601402 C100.52005491 150.45716593 100.53532236 153.06831008 100.55921555 155.67936134 C100.59072429 159.33065614 100.59092462 162.98068584 100.58349609 166.63208008 C100.6081041 168.25548309 100.6081041 168.25548309 100.63320923 169.91168213 C100.57196369 177.25109925 100.57196369 177.25109925 97.63386536 181.09809875 C94.91694986 183.0599701 92.22693337 184.82502124 89.30078125 186.4609375 C87.63112305 187.40356445 87.63112305 187.40356445 85.92773438 188.36523438 C84.72267443 189.03518895 83.5175958 189.70510993 82.3125 190.375 C81.05350974 191.08304863 79.79505447 191.79204928 78.53710938 192.50195312 C76.59905859 193.59541129 74.66065181 194.68818507 72.7204895 195.77789307 C66.45006729 199.29978398 60.22278234 202.89467999 54 206.5 C47.15397068 210.45907317 40.30073919 214.40484668 33.4296875 218.3203125 C32.48080658 218.86126556 32.48080658 218.86126556 31.51275635 219.41314697 C28.45510463 221.15596433 25.39639549 222.89688105 22.3359375 224.63476562 C21.2325 225.26318359 20.1290625 225.89160156 18.9921875 226.5390625 C18.02651855 227.08771973 17.06084961 227.63637695 16.06591797 228.20166016 C15.05416504 228.7951123 14.04241211 229.38856445 13 230 C12.33474524 230.29820837 11.66949049 230.59641674 10.9840765 230.90366173 C7.79873789 232.49708682 5.44783837 233.6777264 4.26663589 237.165308 C3.99344398 239.93927471 3.97928681 242.61553018 4.04760742 245.40234375 C4.04150452 246.44842804 4.03540161 247.49451233 4.02911377 248.57229614 C4.01770309 252.02845133 4.06197648 255.48163739 4.10546875 258.9375 C4.10556736 261.33976537 4.10171302 263.74203389 4.09407043 266.14428711 C4.08261844 272.46880911 4.11632205 278.7922391 4.1619873 285.11657715 C4.22848915 295.23917591 4.23106763 305.36187588 4.22530556 315.48464966 C4.23041009 319.02185067 4.25731886 322.55839042 4.28715515 326.09545898 C4.29379484 328.26285645 4.29991133 330.43025561 4.30541992 332.59765625 C4.31942337 333.58170441 4.33342682 334.56575256 4.34785461 335.57962036 C4.34253859 340.52291964 4.30983401 344.03267869 1 348 C-1.49829102 349.79833984 -1.49829102 349.79833984 -4.50390625 351.4609375 C-5.6237793 352.0895166 -6.74365234 352.7180957 -7.89746094 353.36572266 C-9.11910978 354.03553802 -10.3407903 354.70529563 -11.5625 355.375 C-12.82793047 356.08111988 -14.09256838 356.7886618 -15.35644531 357.49755859 C-17.95981737 358.95684344 -20.56604472 360.41082064 -23.17431641 361.86132812 C-28.90178688 365.05411968 -34.57527701 368.33952034 -40.25 371.625 C-41.31444336 372.23947998 -42.37888672 372.85395996 -43.47558594 373.48706055 C-49.75657658 377.11464334 -56.02648923 380.76078506 -62.28857422 384.42089844 C-65.25687329 386.15500243 -68.22790269 387.88435323 -71.19921875 389.61328125 C-75.13113117 391.90242197 -79.04753378 394.2157798 -82.95703125 396.54296875 C-84.84615549 397.65398372 -86.73547022 398.76467488 -88.625 399.875 C-89.48391846 400.39344482 -90.34283691 400.91188965 -91.2277832 401.44604492 C-99.10575749 406.04146414 -99.10575749 406.04146414 -104 405 C-107.23030046 403.54703237 -110.22139204 401.76848461 -113.25 399.9375 C-115.13399702 398.8292272 -117.01811725 397.72116385 -118.90234375 396.61328125 C-119.89476074 396.02369629 -120.88717773 395.43411133 -121.90966797 394.82666016 C-126.10070167 392.34938775 -130.32207273 389.92642077 -134.54394531 387.50219727 C-145.02933765 381.48022373 -155.48247755 375.40289552 -165.91625977 369.29199219 C-171.30639791 366.13883962 -176.71265597 363.01706097 -182.140625 359.9296875 C-183.92919677 358.90929756 -185.71754358 357.88851426 -187.50585938 356.86767578 C-189.20959011 355.89799925 -190.91725239 354.93524084 -192.625 353.97265625 C-194.17960937 353.08513672 -194.17960937 353.08513672 -195.765625 352.1796875 C-196.68118164 351.66132324 -197.59673828 351.14295898 -198.54003906 350.60888672 C-202.22983718 348.19565035 -204.59139783 346.2258065 -206 342 C-206.09852521 339.04850669 -206.13903139 336.12063686 -206.13371277 333.16897583 C-206.13597833 332.25522466 -206.13824388 331.34147348 -206.14057809 330.40003288 C-206.14692929 327.3254324 -206.14608801 324.25087587 -206.14526367 321.17626953 C-206.14825446 318.97707054 -206.15165681 316.77787208 -206.15544128 314.57867432 C-206.16429361 308.59523319 -206.16661992 302.61180636 -206.16725707 296.62835932 C-206.16820525 291.63813941 -206.17188249 286.64792285 -206.17542917 281.65770423 C-206.18311261 270.55967856 -206.18609736 259.46165854 -206.18542381 248.36363055 C-206.18538386 247.69755337 -206.1853439 247.03147618 -206.18530273 246.34521484 C-206.18526185 245.67832519 -206.18522097 245.01143554 -206.18517885 244.32433711 C-206.18477238 233.51585846 -206.19434186 222.70741464 -206.2084411 211.89894606 C-206.22280093 200.80323367 -206.22952831 189.70753566 -206.22884732 178.61181343 C-206.22859199 172.38147351 -206.23146251 166.151173 -206.24202538 159.92084122 C-206.2516867 154.06206316 -206.25179904 148.20336234 -206.24450874 142.3445816 C-206.24346045 140.19230156 -206.24584021 138.04001676 -206.2518692 135.8877449 C-206.25955756 132.95340213 -206.25496521 130.01932822 -206.24723816 127.08499146 C-206.25238172 126.2300296 -206.25752529 125.37506775 -206.26282471 124.49419796 C-206.23797247 120.23370065 -206.06154625 116.84800875 -204 113 C-202.47216797 111.65966797 -202.47216797 111.65966797 -200.6171875 110.6171875 C-199.90014648 110.20307617 -199.18310547 109.78896484 -198.44433594 109.36230469 C-197.63770508 108.91274414 -196.83107422 108.46318359 -196 108 C-194.1480313 106.91996706 -192.29649871 105.83918609 -190.4453125 104.7578125 C-188.33938662 103.54540615 -186.2325685 102.33454867 -184.125 101.125 C-182.38635176 100.12475431 -180.64770498 99.12450607 -178.90914917 98.12409973 C-177.11674802 97.09290878 -175.32399961 96.06232328 -173.53125 95.03173828 C-170.18507111 93.1073878 -166.84211723 91.17749107 -163.5 89.24609375 C-151.76191505 82.4628506 -140.00656376 75.7107818 -128.23205566 68.99102783 C-116.53932383 62.31714395 -104.87488668 55.59477718 -93.21777344 48.85888672 C-87.81329355 45.73675395 -82.40652588 42.61858796 -77 39.5 C-74.8333225 38.25001878 -72.66665583 37.00001879 -70.5 35.75 C-57.5 28.25 -57.5 28.25 -54.24438477 26.37182617 C-52.09635954 25.13253733 -49.94840925 23.89311859 -47.80053711 22.65356445 C-42.71344451 19.71797433 -37.62558153 16.78374328 -32.5350647 13.85409546 C-30.12456252 12.46671905 -27.71448624 11.07860376 -25.30444336 9.69042969 C-23.59856032 8.70826185 -21.89206014 7.72716615 -20.18554688 6.74609375 C-19.15623047 6.153125 -18.12691406 5.56015625 -17.06640625 4.94921875 C-16.15834229 4.42674561 -15.25027832 3.90427246 -14.31469727 3.3659668 C-9.21050697 0.35384311 -5.99845129 -1.1280834 0 0 Z M-22.0625 27.5625 C-29.11624811 31.89788368 -36.25889587 36.06246933 -43.4375 40.1875 C-44.53698975 40.82212158 -45.63647949 41.45674316 -46.76928711 42.1105957 C-51.92818691 45.08801787 -57.09138325 48.05674389 -62.2759552 50.98921204 C-65.06333764 52.56847964 -67.84323322 54.16086734 -70.625 55.75 C-71.66841553 56.33418701 -72.71183105 56.91837402 -73.78686523 57.52026367 C-74.73634033 58.06529541 -75.68581543 58.61032715 -76.6640625 59.171875 C-77.50404785 59.6472168 -78.3440332 60.12255859 -79.20947266 60.61230469 C-79.80034668 61.07024414 -80.3912207 61.52818359 -81 62 C-81 62.99 -81 63.98 -81 65 C-78.58190051 66.85657871 -78.58190051 66.85657871 -75.25 68.6875 C-74.27969849 69.25247192 -74.27969849 69.25247192 -73.28979492 69.82885742 C-70.86750636 71.23292855 -68.4343035 72.61686304 -66 74 C-63.82407421 75.24193429 -61.64830381 76.48414087 -59.47265625 77.7265625 C-55.86881243 79.78452014 -52.26395588 81.84061471 -48.6550293 83.88964844 C-40.38498443 88.59226501 -32.19758612 93.41719598 -24.12817383 98.45825195 C-23.38591553 98.91417725 -22.64365723 99.37010254 -21.87890625 99.83984375 C-21.2454126 100.23550537 -20.61191895 100.63116699 -19.95922852 101.03881836 C-17.59368755 102.30297437 -17.59368755 102.30297437 -13 103 C-13 76.93 -13 50.86 -13 24 C-16.81893694 24 -18.93594278 25.59459054 -22.0625 27.5625 Z M4 24 C4 50.4 4 76.8 4 104 C11.55914646 100.22042677 18.80560022 96.47285381 26 92.125 C36.07464414 86.09977593 46.24553096 80.25807783 56.45703125 74.46923828 C62.38820251 71.09855977 68.25060866 67.67282985 74 64 C69.73697049 60.29227493 65.13977851 57.76699455 60.1875 55.125 C52.3562922 50.88367073 44.6211616 46.50304616 36.9375 42 C35.93662354 41.41412109 34.93574707 40.82824219 33.90454102 40.22460938 C29.97398953 37.92155934 26.04560127 35.61485111 22.11865234 33.30566406 C19.45629927 31.74165375 16.79093663 30.18289146 14.125 28.625 C13.32827881 28.15449219 12.53155762 27.68398437 11.71069336 27.19921875 C8.09660178 24.849366 8.09660178 24.849366 4 24 Z M-92 79 C-92 105.4 -92 131.8 -92 159 C-83.40309609 154.70154804 -75.09427155 150.45710616 -66.875 145.5625 C-60.05605223 141.53656317 -53.22362659 137.54080114 -46.33203125 133.640625 C-45.69346191 133.27867538 -45.05489258 132.91672577 -44.39697266 132.54380798 C-41.87384452 131.11415156 -39.35058155 129.68484746 -36.82196045 128.2649231 C-35.07032867 127.28110939 -33.32219784 126.2910703 -31.57421875 125.30078125 C-30.56963623 124.73528564 -29.56505371 124.16979004 -28.5300293 123.5871582 C-26.33592694 122.21073637 -24.71160715 120.92279124 -23 119 C-30.07410407 114.08885373 -37.44336246 109.79430013 -44.9375 105.5625 C-47.41875286 104.15502539 -49.89876448 102.74536881 -52.37890625 101.3359375 C-53.00724365 100.97930527 -53.63558105 100.62267303 -54.28295898 100.25523376 C-58.66725588 97.76481547 -63.03876375 95.25308846 -67.40234375 92.7265625 C-67.99355515 92.3843718 -68.58476654 92.04218109 -69.19389343 91.68962097 C-72.01327443 90.05707782 -74.83134564 88.422311 -77.64819336 86.78540039 C-78.65889893 86.20008545 -79.66960449 85.61477051 -80.7109375 85.01171875 C-81.59056152 84.50084717 -82.47018555 83.98997559 -83.37646484 83.46362305 C-86.20310225 81.88669291 -89.10495766 80.44752117 -92 79 Z M74 83.0625 C72.45253771 83.98557434 70.90431006 84.90736641 69.35546875 85.828125 C68.07615479 86.58899414 68.07615479 86.58899414 66.77099609 87.36523438 C61.64298433 90.39053541 56.47447173 93.34566132 51.3125 96.3125 C46.87344681 98.87231493 42.43659237 101.43592309 38 104 C36.91638184 104.62503418 35.83276367 105.25006836 34.71630859 105.89404297 C31.63987335 107.67202848 28.56916678 109.45950395 25.5 111.25 C24.56841064 111.78665283 23.63682129 112.32330566 22.67700195 112.8762207 C21.82452881 113.37597412 20.97205566 113.87572754 20.09375 114.390625 C18.97516602 115.0407959 18.97516602 115.0407959 17.83398438 115.70410156 C15.71683855 117.03536664 15.71683855 117.03536664 14 120 C27.19270458 127.80905215 40.45949575 135.48729287 53.74951172 143.12939453 C56.88835517 144.93575014 60.02442213 146.74684751 63.16015625 148.55859375 C65.04414018 149.64345609 66.92824802 150.7281033 68.8125 151.8125 C69.67133789 152.30991699 70.53017578 152.80733398 71.41503906 153.31982422 C72.21264648 153.77760254 73.01025391 154.23538086 73.83203125 154.70703125 C74.52014893 155.1038208 75.2082666 155.50061035 75.91723633 155.90942383 C78.199225 157.10431814 80.6083398 158.04333592 83 159 C83 132.6 83 106.2 83 79 C79.58298418 79 76.86202471 81.33358852 74 83.0625 Z M-111 79 C-111.97718994 79.56376343 -111.97718994 79.56376343 -112.97412109 80.13891602 C-113.89789551 80.67186279 -114.82166992 81.20480957 -115.7734375 81.75390625 C-116.81338867 82.35388428 -117.85333984 82.9538623 -118.92480469 83.57202148 C-121.25095496 84.91401859 -123.57712362 86.25598377 -125.90332031 87.59790039 C-131.3694393 90.75120661 -136.83545928 93.90468274 -142.30044556 97.05995178 C-144.00766005 98.04557869 -145.71501103 99.03096916 -147.42236328 100.01635742 C-149.62694459 101.28912707 -151.83105253 102.56271702 -154.03466797 103.8371582 C-158.5661068 106.45553236 -163.09912495 109.06759538 -167.671875 111.61328125 C-168.33477539 111.98396729 -168.99767578 112.35465332 -169.68066406 112.73657227 C-171.33583731 113.65855618 -172.99579114 114.57194463 -174.65625 115.484375 C-177.2465711 116.93925687 -177.2465711 116.93925687 -179 120 C-178.1234375 120.48726562 -177.246875 120.97453125 -176.34375 121.4765625 C-168.05193038 126.10450283 -159.8222773 130.83161995 -151.625 135.625 C-149.58073749 136.81902466 -147.53646645 138.01303473 -145.4921875 139.20703125 C-142.14290186 141.16343774 -138.79399718 143.12048567 -135.44628906 145.07958984 C-132.46162229 146.82551004 -129.47382632 148.56597299 -126.48406982 150.30316162 C-124.77982668 151.29513898 -123.07860435 152.29230035 -121.37744141 153.28955078 C-120.34022949 153.89138184 -119.30301758 154.49321289 -118.234375 155.11328125 C-116.86104004 155.91439331 -116.86104004 155.91439331 -115.45996094 156.73168945 C-113.24726507 157.87251468 -111.40336923 158.45231165 -109 159 C-108.95372549 148.86462398 -108.91815573 138.72927296 -108.89637566 128.59381294 C-108.88592403 123.88786217 -108.87173978 119.18198349 -108.84912109 114.47607422 C-108.82744174 109.93735924 -108.81544177 105.39871376 -108.81024551 100.85995102 C-108.80654091 99.12553691 -108.79930706 97.39112674 -108.78853989 95.6567421 C-108.77409005 93.23347914 -108.7720193 90.81050591 -108.77294922 88.38720703 C-108.76216339 87.30395645 -108.76216339 87.30395645 -108.75115967 86.19882202 C-108.65017291 82.15032249 -108.65017291 82.15032249 -111 79 Z M-188 135 C-188 161.07 -188 187.14 -188 214 C-184.28770017 212.51508007 -181.09399307 211.03192692 -177.640625 209.09375 C-176.10402222 208.23317993 -176.10402222 208.23317993 -174.53637695 207.35522461 C-173.45187256 206.74300049 -172.36736816 206.13077637 -171.25 205.5 C-170.1261792 204.86779541 -169.0023584 204.23559082 -167.84448242 203.58422852 C-159.60958769 198.93894862 -151.43154048 194.20780095 -143.30761719 189.37158203 C-139.54016692 187.13231673 -135.76494404 184.90621989 -131.9909668 182.67797852 C-127.65959104 180.12043395 -123.32975966 177.56027926 -119 175 C-121.34889868 172.53590875 -123.4762645 170.51499194 -126.484375 168.9140625 C-127.15960205 168.54812988 -127.8348291 168.18219727 -128.53051758 167.80517578 C-129.62916138 167.22098877 -129.62916138 167.22098877 -130.75 166.625 C-138.18231791 162.58634701 -145.51678377 158.40540411 -152.8125 154.125 C-160.82169483 149.43807115 -168.83361919 144.75655625 -176.875 140.125 C-177.76678955 139.60695801 -178.6585791 139.08891602 -179.57739258 138.55517578 C-180.3948999 138.0857959 -181.21240723 137.61641602 -182.0546875 137.1328125 C-182.77124512 136.71918457 -183.48780273 136.30555664 -184.22607422 135.87939453 C-185.96866096 134.85194901 -185.96866096 134.85194901 -188 135 Z M-21.06640625 137.75390625 C-22.09677002 138.35388428 -23.12713379 138.9538623 -24.1887207 139.57202148 C-25.30206787 140.22887939 -26.41541504 140.8857373 -27.5625 141.5625 C-28.72381637 142.24162747 -29.88552499 142.9200846 -31.04760742 143.59790039 C-33.47393887 145.01365984 -35.89853139 146.43233862 -38.32226562 147.85253906 C-41.88687758 149.9379054 -45.46447947 152.00005373 -49.046875 154.0546875 C-55.37546814 157.68451446 -61.69106422 161.33613234 -68 165 C-68.78971191 165.45584473 -69.57942383 165.91168945 -70.39306641 166.38134766 C-72.31099609 167.49246972 -74.21984251 168.61716678 -76.125 169.75 C-77.09695312 170.32234375 -78.06890625 170.8946875 -79.0703125 171.484375 C-79.70710938 171.98453125 -80.34390625 172.4846875 -81 173 C-81 173.99 -81 174.98 -81 176 C-80.33806641 176.3810791 -79.67613281 176.7621582 -78.99414062 177.15478516 C-75.82902986 178.97750122 -72.66437142 180.80100079 -69.5 182.625 C-68.62665009 183.12836884 -68.62665009 183.12836884 -67.73565674 183.64190674 C-59.26563962 188.52501114 -50.81402867 193.43847523 -42.375 198.375 C-35.47519102 202.40449748 -28.57188772 206.42706818 -21.625 210.375 C-20.97063965 210.75060059 -20.3162793 211.12620117 -19.64208984 211.51318359 C-16.51649555 213.39990285 -16.51649555 213.39990285 -13 214 C-13 187.93 -13 161.86 -13 135 C-16.60779321 135 -17.9721598 135.93787925 -21.06640625 137.75390625 Z M4 135 C4 161.07 4 187.14 4 214 C8.40412687 212.53195771 11.47882978 211.32284118 15.359375 209.05078125 C16.3803125 208.4570874 17.40125 207.86339355 18.453125 207.25170898 C19.54109375 206.61177002 20.6290625 205.97183105 21.75 205.3125 C23.48300062 204.30236249 25.21600679 203.29223436 26.94934082 202.28266907 C28.75295565 201.23135699 30.55521495 200.1777468 32.35742188 199.12402344 C35.94383012 197.02967053 39.54052421 194.95352073 43.140625 192.8828125 C43.71923279 192.54990707 44.29784058 192.21700165 44.89398193 191.87400818 C47.6605411 190.28255664 50.42745546 188.69172291 53.19433594 187.10083008 C55.18409898 185.954125 57.17153327 184.80336647 59.15625 183.64794922 C61.08502929 182.53022427 63.0229363 181.4281315 64.96875 180.34033203 C65.8865625 179.81681152 66.804375 179.29329102 67.75 178.75390625 C68.56984375 178.29443604 69.3896875 177.83496582 70.234375 177.36157227 C70.81703125 176.91225342 71.3996875 176.46293457 72 176 C72 175.01 72 174.02 72 173 C70.18591189 171.51613232 70.18591189 171.51613232 67.734375 170.20703125 C66.79513184 169.6670752 65.85588867 169.12711914 64.88818359 168.57080078 C63.85258301 167.99056152 62.81698242 167.41032227 61.75 166.8125 C60.68475098 166.20390137 59.61950195 165.59530273 58.52197266 164.96826172 C56.22392986 163.65675748 53.92400989 162.34945271 51.62011719 161.04833984 C47.95984554 158.9801537 44.31102096 156.89233201 40.6640625 154.80078125 C34.9100231 151.50253124 29.15172661 148.21191375 23.38574219 144.93457031 C20.95842378 143.54763124 18.53782625 142.15187186 16.12207031 140.74511719 C15.48185944 140.3741391 14.84164856 140.00316101 14.18203735 139.62094116 C12.94364886 138.90295175 11.70721064 138.18158524 10.47299194 137.45645142 C7.43635038 135.58318007 7.43635038 135.58318007 4 135 Z M-116.0390625 192.7890625 C-117.08288086 193.39419678 -118.12669922 193.99933105 -119.20214844 194.62280273 C-120.89645996 195.61389038 -120.89645996 195.61389038 -122.625 196.625 C-123.79698269 197.30644574 -124.96918598 197.98751221 -126.14160156 198.66821289 C-129.17083078 200.42847625 -132.19698425 202.19395068 -135.2220459 203.96136475 C-138.00390566 205.58645598 -140.78721957 207.20905308 -143.5703125 208.83203125 C-146.63325674 210.61831091 -149.69556024 212.40562333 -152.75537109 214.19726562 C-156.97617978 216.66680459 -161.1996422 219.12644257 -165.46875 221.51171875 C-166.12004883 221.876604 -166.77134766 222.24148926 -167.44238281 222.61743164 C-169.08840232 223.53492523 -170.73926118 224.44372318 -172.390625 225.3515625 C-174.9952993 226.99703039 -176.86627112 228.79650805 -179 231 C-178.05253906 231.5261792 -178.05253906 231.5261792 -177.0859375 232.06298828 C-162.23929567 240.31795646 -147.50492119 248.73480095 -132.85253906 257.33056641 C-128.24406087 260.02765421 -123.62255546 262.70213259 -119 265.375 C-118.18611816 265.84574951 -117.37223633 266.31649902 -116.53369141 266.80151367 C-114.68933273 267.8680306 -112.84470134 268.93407588 -111 270 C-108.53515687 267.53515687 -108.76518895 266.16419816 -108.75115967 262.80117798 C-108.75835022 262.07901093 -108.76554077 261.35684387 -108.77294922 260.61279297 C-108.77265717 259.85172241 -108.77236511 259.09065186 -108.77206421 258.30651855 C-108.77346019 255.78495984 -108.78903382 253.26369475 -108.8046875 250.7421875 C-108.80841668 248.99626833 -108.8112641 247.25034706 -108.81326294 245.50442505 C-108.82090689 240.9045028 -108.84056187 236.30470643 -108.8626709 231.70483398 C-108.88311296 227.0128754 -108.89226114 222.32089651 -108.90234375 217.62890625 C-108.92380708 208.41921546 -108.95795217 199.20961819 -109 190 C-111.89559757 190 -113.54134938 191.33441732 -116.0390625 192.7890625 Z M-92 190 C-92 216.4 -92 242.8 -92 270 C-82.01887791 265.03134994 -82.01887791 265.03134994 -72.375 259.5625 C-70.9290717 258.70067047 -69.48240416 257.84008046 -68.03515625 256.98046875 C-67.24641113 256.5117334 -66.45766602 256.04299805 -65.64501953 255.56005859 C-60.38960418 252.46036281 -55.09918328 249.42094987 -49.8125 246.375 C-48.69423828 245.73046875 -47.57597656 245.0859375 -46.42382812 244.421875 C-38.62589787 239.93034096 -30.82116978 235.45095662 -23 231 C-23 230.34 -23 229.68 -23 229 C-23.57105469 228.67950684 -24.14210938 228.35901367 -24.73046875 228.02880859 C-35.91078552 221.74765687 -47.05761109 215.41588324 -58.125 208.9375 C-66.04509003 204.30267968 -73.97634485 199.68900302 -81.9375 195.125 C-83.28835693 194.34757446 -83.28835693 194.34757446 -84.66650391 193.55444336 C-85.48683105 193.08530518 -86.3071582 192.61616699 -87.15234375 192.1328125 C-87.87413818 191.71918457 -88.59593262 191.30555664 -89.33959961 190.87939453 C-90.83413486 189.92199384 -90.83413486 189.92199384 -92 190 Z M-188 245 C-188 271.4 -188 297.8 -188 325 C-184.13650609 323.45460244 -180.87579302 321.88793449 -177.30078125 319.83203125 C-176.18622559 319.19313965 -175.07166992 318.55424805 -173.92333984 317.89599609 C-172.71966883 317.20159745 -171.51605697 316.50709629 -170.3125 315.8125 C-169.06736609 315.09691381 -167.82208399 314.3815854 -166.57666016 313.66650391 C-163.35442487 311.81527447 -160.13455332 309.95997271 -156.91522217 308.10369873 C-154.44497029 306.68014907 -151.97313201 305.2593689 -149.50120544 303.83872986 C-146.62503583 302.18548568 -143.74998346 300.53030618 -140.875 298.875 C-139.82868408 298.27276611 -138.78236816 297.67053223 -137.7043457 297.05004883 C-131.4306977 293.42987694 -125.19740952 289.74921906 -119 286 C-121.92629249 282.82559186 -124.84345489 280.7465497 -128.6015625 278.63671875 C-130.27810913 277.68804932 -130.27810913 277.68804932 -131.98852539 276.72021484 C-133.20065237 276.04258738 -134.41281135 275.36501715 -135.625 274.6875 C-136.87598835 273.98202447 -138.12655236 273.27579601 -139.37670898 272.56884766 C-141.30944698 271.47592181 -143.24239925 270.38340379 -145.17668152 269.29321289 C-149.54776968 266.82850398 -153.90297074 264.33785965 -158.24609375 261.82421875 C-158.82423828 261.48962143 -159.40238281 261.15502411 -159.99804688 260.81028748 C-162.73544086 259.22493343 -165.47163983 257.63752612 -168.20751953 256.04956055 C-169.70001221 255.18584839 -169.70001221 255.18584839 -171.22265625 254.3046875 C-172.07609619 253.80952637 -172.92953613 253.31436523 -173.80883789 252.80419922 C-178.50826009 250.14726937 -183.26067725 247.58508514 -188 245 Z M-22.5625 249.625 C-23.45146973 250.11500488 -24.34043945 250.60500977 -25.25634766 251.10986328 C-35.24395802 256.64622882 -45.09800129 262.40713538 -54.93798828 268.20068359 C-58.05703001 270.03351229 -61.18225294 271.8554355 -64.30859375 273.67578125 C-66.31004827 274.8460935 -68.31135608 276.01665672 -70.3125 277.1875 C-71.24368652 277.72810059 -72.17487305 278.26870117 -73.13427734 278.82568359 C-73.99359863 279.3305127 -74.85291992 279.8353418 -75.73828125 280.35546875 C-76.49149658 280.79528076 -77.24471191 281.23509277 -78.02075195 281.68823242 C-79.9440693 282.96293134 -81.43791605 284.30993213 -83 286 C-82.34854004 286.37584229 -81.69708008 286.75168457 -81.02587891 287.13891602 C-79.04247234 288.28318903 -77.05907481 289.42747772 -75.07568359 290.57177734 C-72.74794887 291.91466322 -70.42015904 293.25745307 -68.09228516 294.60009766 C-62.07557967 298.07053509 -56.0599214 301.54275699 -50.046875 305.01953125 C-43.70224131 308.68722076 -37.35339025 312.34750032 -31 316 C-30.12375977 316.50418457 -29.24751953 317.00836914 -28.34472656 317.52783203 C-26.0660383 318.83620222 -23.78396067 320.13836155 -21.5 321.4375 C-20.85337402 321.8092334 -20.20674805 322.1809668 -19.54052734 322.56396484 C-16.46355782 324.41891057 -16.46355782 324.41891057 -13 325 C-13 298.6 -13 272.2 -13 245 C-16.08933252 245 -19.92670519 248.17040778 -22.5625 249.625 Z M-108.84765625 299.11328125 C-109.69361107 299.60093964 -109.69361107 299.60093964 -110.55665588 300.09844971 C-112.3967411 301.16174648 -114.22952502 302.23700058 -116.0625 303.3125 C-117.34182577 304.05474744 -118.62161472 304.79619709 -119.90185547 305.53686523 C-123.04855375 307.35954742 -126.18989163 309.191241 -129.32977295 311.02563477 C-132.36048547 312.79367038 -135.40034909 314.54582749 -138.43920898 316.29980469 C-140.64099102 317.57173775 -142.84023488 318.84796736 -145.0390625 320.125 C-148.96659244 322.4041201 -152.90043742 324.6721801 -156.8359375 326.9375 C-158.0330434 327.62686648 -159.23014626 328.31623823 -160.42724609 329.00561523 C-162.77074184 330.35509992 -165.11492546 331.70336576 -167.45947266 333.05102539 C-168.52472168 333.66453857 -169.5899707 334.27805176 -170.6875 334.91015625 C-171.64011719 335.45808838 -172.59273437 336.00602051 -173.57421875 336.57055664 C-175.41755993 337.65678476 -177.21976268 338.81317512 -179 340 C-179 340.66 -179 341.32 -179 342 C-178.51982422 342.25990723 -178.03964844 342.51981445 -177.54492188 342.78759766 C-166.30580347 348.88558593 -155.19613287 355.17295686 -144.16943359 361.64697266 C-136.10753844 366.37380407 -127.98987211 370.99461941 -119.83666992 375.56201172 C-118.95470947 376.05717285 -118.07274902 376.55233398 -117.1640625 377.0625 C-115.88063965 377.77599609 -115.88063965 377.77599609 -114.57128906 378.50390625 C-112.79019342 379.54022928 -111.04305971 380.63632858 -109.32714844 381.77734375 C-104.57224395 385.11773612 -104.57224395 385.11773612 -99.0390625 385.7578125 C-98.03617187 385.17773438 -97.03328125 384.59765625 -96 384 C-94.88383301 383.38463379 -94.88383301 383.38463379 -93.74511719 382.75683594 C-90.92371618 381.17901597 -88.15014172 379.53278263 -85.375 377.875 C-83.22075202 376.60298053 -81.06577381 375.33219714 -78.91015625 374.0625 C-77.7823877 373.39734375 -76.65461914 372.7321875 -75.49267578 372.046875 C-69.6305328 368.60201517 -63.7199792 365.24128326 -57.8125 361.875 C-56.63425611 361.20299948 -55.45603335 360.53096189 -54.27783203 359.85888672 C-51.97080665 358.54315127 -49.66345407 357.22799455 -47.35595703 355.91308594 C-42.15155632 352.94628221 -36.95082904 349.97305889 -31.75 347 C-30.03647735 346.02080006 -28.32293783 345.04162963 -26.609375 344.0625 C-25.90780273 343.66160156 -25.20623047 343.26070313 -24.48339844 342.84765625 C-23.99387695 342.56792969 -23.50435547 342.28820312 -23 342 C-24.2779686 338.1660942 -25.47450668 337.89363185 -28.96875 335.99609375 C-30.00572021 335.42576416 -31.04269043 334.85543457 -32.11108398 334.26782227 C-33.22942627 333.66381592 -34.34776855 333.05980957 -35.5 332.4375 C-37.81456871 331.16545643 -40.12837037 329.89201618 -42.44140625 328.6171875 C-43.57336426 327.99553711 -44.70532227 327.37388672 -45.87158203 326.73339844 C-49.76710834 324.57495948 -53.61156847 322.34141597 -57.4375 320.0625 C-64.79919374 315.69062359 -72.20684907 311.40016186 -79.625 307.125 C-80.74060303 306.48183838 -81.85620605 305.83867676 -83.00561523 305.17602539 C-85.09364953 303.97302769 -87.18316155 302.77258981 -89.27441406 301.57519531 C-90.92189017 300.623071 -92.56182562 299.6574846 -94.18652344 298.66699219 C-100.07880545 295.09904471 -103.06105834 295.74458518 -108.84765625 299.11328125 Z " fill="#76FA7A" transform="translate(303,48)"/>
<path d="M0 0 C-0.33 0.99 -0.66 1.98 -1 3 C-1.66 3 -2.32 3 -3 3 C-3.33 3.99 -3.66 4.98 -4 6 C-4.66 6 -5.32 6 -6 6 C-6 6.66 -6 7.32 -6 8 C-6.66 8 -7.32 8 -8 8 C-8 83.24 -8 158.48 -8 236 C-10.62138029 232.06792957 -10.27765027 228.73111126 -10.25396729 224.16897583 C-10.25708727 223.25522466 -10.26020725 222.34147348 -10.26342177 221.40003288 C-10.27142566 218.32538028 -10.26506876 215.25092374 -10.25878906 212.17626953 C-10.2614979 209.97706995 -10.26505822 207.77787127 -10.26940918 205.57867432 C-10.27854927 199.59521348 -10.27498196 193.6118214 -10.26865101 187.62835932 C-10.26359812 181.37397224 -10.2682806 175.11959116 -10.27142334 168.86520386 C-10.27529912 157.68490449 -10.26907056 146.50463042 -10.25890467 135.32433711 C-10.24997329 125.18805164 -10.25151719 115.05181198 -10.26074219 104.91552734 C-10.2714471 93.14761693 -10.27542791 81.37972885 -10.26951766 69.61181343 C-10.26639688 63.38147816 -10.26599149 57.15117446 -10.27259064 50.92084122 C-10.27836229 45.06205602 -10.27437041 39.20335743 -10.26280212 33.3445816 C-10.26015434 31.19230417 -10.26092263 29.04001946 -10.26532745 26.8877449 C-10.27077974 23.95339487 -10.2639524 21.01932365 -10.25396729 18.08499146 C-10.25842873 17.2300296 -10.26289017 16.37506775 -10.26748681 15.49419796 C-10.23947644 11.26008746 -10.13442468 7.78328659 -8 4 C-2.81081081 0 -2.81081081 0 0 0 Z " fill="#83E587" transform="translate(107,157)"/>
<path d="M0 0 C2.85612139 0.6125888 5.14156348 1.48742175 7.6796875 2.92578125 C8.36160156 3.31056641 9.04351562 3.69535156 9.74609375 4.09179688 C10.44863281 4.49462891 11.15117187 4.89746094 11.875 5.3125 C12.91720703 5.8993457 12.91720703 5.8993457 13.98046875 6.49804688 C25.5270895 13.05417899 25.5270895 13.05417899 27 16 C27.10298605 17.55964551 27.14379432 19.12359041 27.15390015 20.68659973 C27.16250061 21.67499344 27.17110107 22.66338715 27.17996216 23.68173218 C27.18422211 24.77007355 27.18848206 25.85841492 27.19287109 26.97973633 C27.20104858 28.12291824 27.20922607 29.26610016 27.21765137 30.44392395 C27.2425341 34.23995432 27.2590278 38.03594726 27.2734375 41.83203125 C27.27876118 43.1257987 27.28408485 44.41956615 27.28956985 45.75253868 C27.31080452 51.18870984 27.32993466 56.62486878 27.34119225 62.06107044 C27.35743128 69.85149892 27.3906076 77.64142862 27.44759309 85.43166906 C27.49096234 91.56980132 27.50693721 97.70773791 27.51332474 103.84601402 C27.52005491 106.45716593 27.53532236 109.06831008 27.55921555 111.67936134 C27.59072429 115.33065614 27.59092462 118.98068584 27.58349609 122.63208008 C27.59990143 123.71434875 27.61630676 124.79661743 27.63320923 125.91168213 C27.57190483 133.25815361 27.57190483 133.25815361 24.59654236 137.11764526 C22.35929683 138.73952896 20.19007475 140.30339232 17.79296875 141.67578125 C17.04208984 142.11083984 16.29121094 142.54589844 15.51757812 142.99414062 C14.74865234 143.42919922 13.97972656 143.86425781 13.1875 144.3125 C12.39923828 144.76689453 11.61097656 145.22128906 10.79882812 145.68945312 C8.86982053 146.80009386 6.93697261 147.90332933 5 149 C4.01 147.68 3.02 146.36 2 145 C2.54527344 144.84144531 3.09054687 144.68289062 3.65234375 144.51953125 C8.87851861 142.90254382 13.37872835 140.82905213 18.0546875 137.98828125 C20 137 20 137 23 137 C23 135.68 23 134.36 23 133 C23.66 133 24.32 133 25 133 C25.04669689 117.92730738 25.08197749 102.85462037 25.10362434 87.78187084 C25.11394199 80.78351106 25.12801161 73.78519619 25.15087891 66.78686523 C25.17292335 60.03715202 25.18455834 53.28749519 25.18975449 46.53774452 C25.19345901 43.95846127 25.20069269 41.37918066 25.21146011 38.79991722 C25.22591015 35.19622582 25.22798065 31.59272923 25.22705078 27.98901367 C25.23424133 26.91511383 25.24143188 25.84121399 25.24884033 24.73477173 C25.246091 23.75460587 25.24334167 22.77444 25.24050903 21.76457214 C25.24327441 20.48558438 25.24327441 20.48558438 25.24609566 19.18075848 C25.13550499 16.70720127 25.13550499 16.70720127 23 14 C17.33455319 10.39215328 11.22973769 7.49189508 5 5 C5 4.34 5 3.68 5 3 C2.525 2.01 2.525 2.01 0 1 C0 0.67 0 0.34 0 0 Z " fill="#8BF28D" transform="translate(376,92)"/>
<path d="M0 0 C0.66 0.33 1.32 0.66 2 1 C-11.36893204 10 -11.36893204 10 -14 10 C-14 10.66 -14 11.32 -14 12 C-14.99 12.33 -15.98 12.66 -17 13 C-17.66 13.99 -18.32 14.98 -19 16 C-20.995703 16.35816286 -22.99649349 16.68843498 -25 17 C-27.69900824 18.29210363 -27.69900824 18.29210363 -30.29296875 19.9765625 C-31.25267578 20.564375 -32.21238281 21.1521875 -33.20117188 21.7578125 C-35.20399427 23.01006771 -37.20659591 24.26267604 -39.20898438 25.515625 C-40.16482422 26.10085937 -41.12066406 26.68609375 -42.10546875 27.2890625 C-42.97324951 27.83256348 -43.84103027 28.37606445 -44.73510742 28.93603516 C-47 30 -47 30 -50 29 C-49.33806641 28.6189209 -48.67613281 28.2378418 -47.99414062 27.84521484 C-45.41445791 26.35963363 -42.83521231 24.87329605 -40.25610352 23.38671875 C-38.49865462 22.37422491 -36.7405533 21.36287059 -34.98242188 20.3515625 C-28.96643084 16.88760525 -22.96701986 13.39929257 -17 9.8515625 C-15.90623047 9.20396973 -14.81246094 8.55637695 -13.68554688 7.88916016 C-11.58396083 6.6428333 -9.48619963 5.39003118 -7.39257812 4.13037109 C-6.44833984 3.57172363 -5.50410156 3.01307617 -4.53125 2.4375 C-3.70173828 1.94121094 -2.87222656 1.44492188 -2.01757812 0.93359375 C-1.35177734 0.62550781 -0.68597656 0.31742187 0 0 Z " fill="#91EE96" transform="translate(183,112)"/>
<path d="M0 0 C0.66 0.33 1.32 0.66 2 1 C2 27.4 2 53.8 2 81 C1.67 81 1.34 81 1 81 C0.86931005 71.02953356 0.73890024 61.0590635 0.60884857 51.08858871 C0.54845236 46.45895967 0.48795947 41.82933193 0.42724609 37.19970703 C0.36866381 32.73231547 0.31033488 28.26492067 0.25218201 23.7975235 C0.2299452 22.09268323 0.20761693 20.38784415 0.18519592 18.68300629 C0.15382114 16.29616092 0.12277084 13.90931154 0.09179688 11.52246094 C0.08244614 10.81683517 0.0730954 10.11120941 0.0634613 9.38420105 C0.02317241 6.25562746 0 3.12893845 0 0 Z " fill="#80F986" transform="translate(305,181)"/>
<path d="M0 0 C0.99 0 1.98 0 3 0 C3 0.99 3 1.98 3 3 C3.63808594 3.19335938 4.27617187 3.38671875 4.93359375 3.5859375 C5.75988281 3.84632813 6.58617187 4.10671875 7.4375 4.375 C8.26121094 4.63023437 9.08492188 4.88546875 9.93359375 5.1484375 C12 6 12 6 13 8 C14.99541868 8.68025637 16.99617991 9.34490497 19 10 C20.67334039 10.98879205 22.34151823 11.98648336 24 13 C24.66 13 25.32 13 26 13 C26.33 12.34 26.66 11.68 27 11 C27.4640625 12.423125 27.4640625 12.423125 27.9375 13.875 C28.87394742 16.86080408 28.87394742 16.86080408 30 19 C25.1100138 17.24587669 20.70415687 14.71996079 16.1875 12.1875 C15.41857422 11.76146484 14.64964844 11.33542969 13.85742188 10.89648438 C8.80677514 8.07920379 3.87387246 5.11277432 -1 2 C-0.67 1.34 -0.34 0.68 0 0 Z " fill="#89EF8C" transform="translate(316,185)"/>
<path d="M0 0 C0 0.99 0 1.98 0 3 C-1.2065625 3.4021875 -1.2065625 3.4021875 -2.4375 3.8125 C-3.283125 4.204375 -4.12875 4.59625 -5 5 C-5.33 5.99 -5.66 6.98 -6 8 C-7.7734375 8.52734375 -7.7734375 8.52734375 -10 9 C-11.56339625 9.81371307 -13.10500917 10.67033147 -14.625 11.5625 C-18.78186969 14 -18.78186969 14 -21 14 C-21.33 14.99 -21.66 15.98 -22 17 C-23.7421875 17.87890625 -23.7421875 17.87890625 -25.875 18.5625 C-28.70926461 19.48808088 -30.45158826 20.30105884 -33 22 C-33.99 21.67 -34.98 21.34 -36 21 C-35.37134033 20.64808594 -34.74268066 20.29617187 -34.0949707 19.93359375 C-16.86266925 10.27929809 -16.86266925 10.27929809 0 0 Z " fill="#91F094" transform="translate(170,230)"/>
<path d="M0 0 C6.18336092 1.64473237 11.39655866 4.92553087 16.875 8.125 C17.84953125 8.68832031 18.8240625 9.25164062 19.828125 9.83203125 C22.22161962 11.21650363 24.6120838 12.60593541 27 14 C26.67 14.66 26.34 15.32 26 16 C23 16 23 16 21.62109375 14.671875 C21.08613281 14.12015625 20.55117187 13.5684375 20 13 C17.65092278 11.53334557 17.65092278 11.53334557 15.0625 10.25 C14.20785156 9.80140625 13.35320312 9.3528125 12.47265625 8.890625 C9.76741687 7.91622598 8.64327318 7.99420696 6 9 C5.34 8.01 4.68 7.02 4 6 C4.66 6 5.32 6 6 6 C6 5.34 6 4.68 6 4 C5.195625 3.71125 4.39125 3.4225 3.5625 3.125 C1 2 1 2 0 0 Z " fill="#82F08C" transform="translate(145,402)"/>
<path d="M0 0 C-5.32931087 3.72205838 -10.80770932 7.13145144 -16.4375 10.375 C-17.05254395 10.73271484 -17.66758789 11.09042969 -18.30126953 11.45898438 C-22.75795337 14 -22.75795337 14 -25 14 C-25 13.34 -25 12.68 -25 12 C-22.04518508 9.25624329 -21.22528092 9 -17 9 C-17.33 7.68 -17.66 6.36 -18 5 C-16.741875 4.896875 -15.48375 4.79375 -14.1875 4.6875 C-10.69487669 4.25858135 -9.29603636 3.73337662 -7 1 C-2.44444444 -1.22222222 -2.44444444 -1.22222222 0 0 Z " fill="#8AF18E" transform="translate(260,199)"/>
<path d="M0 0 C0.33 0 0.66 0 1 0 C1.33 7.26 1.66 14.52 2 22 C4.97 20.35 7.94 18.7 11 17 C11.66 17.33 12.32 17.66 13 18 C10.24207283 21.06436352 8.01674364 22.92233707 4 24 C2.35 23.67 0.7 23.34 -1 23 C-0.67 15.41 -0.34 7.82 0 0 Z " fill="#85F08A" transform="translate(306,129)"/>
<path d="M0 0 C0.66 0.33 1.32 0.66 2 1 C1.67 1.66 1.34 2.32 1 3 C0.01 3 -0.98 3 -2 3 C-2 3.66 -2 4.32 -2 5 C-3.10859375 5.54269531 -4.2171875 6.08539063 -5.359375 6.64453125 C-6.82302269 7.36697274 -8.2865585 8.08964092 -9.75 8.8125 C-10.84441406 9.34713867 -10.84441406 9.34713867 -11.9609375 9.89257812 C-14.9573687 11.37717358 -17.65184523 12.71967539 -20.265625 14.82421875 C-21.12414062 15.40623047 -21.12414062 15.40623047 -22 16 C-24.10839844 15.57348633 -24.10839844 15.57348633 -26 15 C-24.8718689 14.37170288 -24.8718689 14.37170288 -23.72094727 13.73071289 C-20.9378088 12.17964254 -18.15551068 10.62707856 -15.3737793 9.07348633 C-14.16838663 8.40068258 -12.96265835 7.72847976 -11.7565918 7.05688477 C-10.02565339 6.09288084 -8.29600957 5.12655352 -6.56640625 4.16015625 C-5.52427979 3.57886963 -4.48215332 2.99758301 -3.40844727 2.39868164 C-1.12440597 1.20986135 -1.12440597 1.20986135 0 0 Z " fill="#8FED93" transform="translate(151,352)"/>
<path d="M0 0 C-0.33 1.65 -0.66 3.3 -1 5 C1.31 5 3.62 5 6 5 C6.33 5.66 6.66 6.32 7 7 C6.67 7.66 6.34 8.32 6 9 C6.99 9.33 7.98 9.66 9 10 C8.67 10.66 8.34 11.32 8 12 C7.19175781 11.50628906 6.38351563 11.01257813 5.55078125 10.50390625 C3.94783203 9.54291016 3.94783203 9.54291016 2.3125 8.5625 C1.25675781 7.92441406 0.20101562 7.28632813 -0.88671875 6.62890625 C-3.71009314 5.15168276 -5.86866977 4.41247578 -9 4 C-4.5 0 -4.5 0 0 0 Z " fill="#82F387" transform="translate(208,340)"/>
<path d="M0 0 C0.66 0.33 1.32 0.66 2 1 C1.01 1.33 0.02 1.66 -1 2 C-1.6814823 3.89179203 -1.6814823 3.89179203 -2 6 C-2.33 6.99 -2.66 7.98 -3 9 C-3.86625 8.79375 -4.7325 8.5875 -5.625 8.375 C-9.36428602 7.95952378 -11.54942141 8.60333724 -15 10 C-12.38221206 7.0447272 -9.32416665 5.24167273 -5.9375 3.25 C-4.87402344 2.61578125 -3.81054688 1.9815625 -2.71484375 1.328125 C-1.81894531 0.88984375 -0.92304688 0.4515625 0 0 Z " fill="#84EE87" transform="translate(238,302)"/>
<path d="M0 0 C4.76551013 1.37605916 8.7248553 3.46778066 12.875 6.125 C13.46796875 6.49753906 14.0609375 6.87007813 14.671875 7.25390625 C16.1181343 8.16365 17.55958046 9.08103798 19 10 C16 12 16 12 14 12 C13.67 10.68 13.34 9.36 13 8 C12.030625 7.87625 11.06125 7.7525 10.0625 7.625 C9.051875 7.41875 8.04125 7.2125 7 7 C6.67 6.34 6.34 5.68 6 5 C5.175 4.505 4.35 4.01 3.5 3.5 C1 2 1 2 0 0 Z " fill="#7FEE89" transform="translate(244,348)"/>
<path d="M0 0 C0.66 0 1.32 0 2 0 C0.61375742 4.15872775 -2.23962002 5.21825071 -5.875 7.25 C-6.51308594 7.62640625 -7.15117187 8.0028125 -7.80859375 8.390625 C-9.4927672 9.34698237 -11.24440869 10.18210099 -13 11 C-13.99 10.67 -14.98 10.34 -16 10 C-15.34 8.68 -14.68 7.36 -14 6 C-13.01 6 -12.02 6 -11 6 C-8.97481509 5.0520411 -6.97522846 4.04808041 -5 3 C-4.236875 2.62875 -3.47375 2.2575 -2.6875 1.875 C-1.01477314 1.11552109 -1.01477314 1.11552109 0 0 Z " fill="#87F48C" transform="translate(347,257)"/>
<path d="M0 0 C5.99878627 0.35286978 7.93730874 1.73912868 12 6 C16.70735812 8.93399483 16.70735812 8.93399483 22 10 C22 10.99 22 11.98 22 13 C16.87526679 11.53351336 12.69657871 9.25383734 8.1875 6.5 C7.50751953 6.09652344 6.82753906 5.69304687 6.12695312 5.27734375 C1.12874442 2.25748884 1.12874442 2.25748884 0 0 Z " fill="#8BEE91" transform="translate(153,203)"/>
<path d="M0 0 C0.33 0.66 0.66 1.32 1 2 C-0.67747555 3.94234011 -1.89217059 4.95716115 -4.30078125 5.9140625 C-7.08823665 7.03549897 -9.45475644 8.40922277 -12 10 C-15.25738842 12.03586776 -18.39609983 13.66140851 -22 15 C-20.75072272 11.25216815 -19.69132561 10.96582803 -16.30859375 9.08203125 C-15.36435547 8.55029297 -14.42011719 8.01855469 -13.44726562 7.47070312 C-12.45404297 6.92349609 -11.46082031 6.37628906 -10.4375 5.8125 C-8.94186523 4.97428711 -8.94186523 4.97428711 -7.41601562 4.11914062 C-4.94848539 2.73779595 -2.47648166 1.36521151 0 0 Z " fill="#91EF95" transform="translate(356,234)"/>
<path d="M0 0 C-0.99 1.485 -0.99 1.485 -2 3 C1.63 4.98 5.26 6.96 9 9 C6 10 6 10 3 10 C3 9.34 3 8.68 3 8 C2.01 8 1.02 8 0 8 C0 7.34 0 6.68 0 6 C-0.928125 5.9071875 -0.928125 5.9071875 -1.875 5.8125 C-4 5 -4 5 -5.25 2.4375 C-5.4975 1.633125 -5.745 0.82875 -6 0 C-3.50907189 -1.24546405 -2.58919267 -0.7767578 0 0 Z " fill="#8FF094" transform="translate(320,165)"/>
<path d="M0 0 C-5.28 2.97 -10.56 5.94 -16 9 C-16.99 8.01 -17.98 7.02 -19 6 C-19 5.34 -19 4.68 -19 4 C-16.03 4 -13.06 4 -10 4 C-9.67 3.34 -9.34 2.68 -9 2 C-5.96271914 -1.03728086 -4.06215635 -1.35405212 0 0 Z " fill="#8FF294" transform="translate(151,152)"/>
<path d="M0 0 C-1.00861682 2.60924787 -1.66498092 3.79748847 -4.09375 5.265625 C-5.28484375 5.75289062 -5.28484375 5.75289062 -6.5 6.25 C-7.69109375 6.75273437 -7.69109375 6.75273437 -8.90625 7.265625 C-11 8 -11 8 -13 8 C-13 8.66 -13 9.32 -13 10 C-14.65 10.33 -16.3 10.66 -18 11 C-18 10.34 -18 9.68 -18 9 C-15.37785672 7.49480613 -12.75255792 5.99568681 -10.125 4.5 C-9.37863281 4.07074219 -8.63226563 3.64148438 -7.86328125 3.19921875 C-7.14785156 2.79316406 -6.43242187 2.38710937 -5.6953125 1.96875 C-5.03547363 1.59169922 -4.37563477 1.21464844 -3.69580078 0.82617188 C-2 0 -2 0 0 0 Z " fill="#8EEF91" transform="translate(230,197)"/>
<path d="M0 0 C0.99 0.33 1.98 0.66 3 1 C-1.95 3.97 -6.9 6.94 -12 10 C-12 9.01 -12 8.02 -12 7 C-11.34 6.67 -10.68 6.34 -10 6 C-10 5.34 -10 4.68 -10 4 C-8.68 4 -7.36 4 -6 4 C-6.66 3.67 -7.32 3.34 -8 3 C-7.67 2.34 -7.34 1.68 -7 1 C-6.401875 1.20625 -5.80375 1.4125 -5.1875 1.625 C-2.71549154 2.30671915 -2.71549154 2.30671915 0 0 Z " fill="#86F289" transform="translate(381,127)"/>
<path d="M0 0 C6.23809641 3.00400134 12.20978654 6.19916156 18 10 C15 11 15 11 11.42578125 9.34765625 C10.04907832 8.59612277 8.67814591 7.8339433 7.3125 7.0625 C6.2596582 6.48338867 6.2596582 6.48338867 5.18554688 5.89257812 C3.45204328 4.93738227 1.72534991 3.96984614 0 3 C0 2.01 0 1.02 0 0 Z " fill="#83EB8B" transform="translate(165,302)"/>
<path d="M0 0 C0.66 0.33 1.32 0.66 2 1 C0.71186658 1.83878455 -0.58063256 2.67086783 -1.875 3.5 C-2.59429687 3.9640625 -3.31359375 4.428125 -4.0546875 4.90625 C-6 6 -6 6 -8 6 C-8 6.99 -8 7.98 -8 9 C-11.465 10.485 -11.465 10.485 -15 12 C-15.66 11.34 -16.32 10.68 -17 10 C-14.21605957 8.29949343 -11.42172475 6.61688375 -8.625 4.9375 C-7.8309375 4.45216797 -7.036875 3.96683594 -6.21875 3.46679688 C-5.45820313 3.01240234 -4.69765625 2.55800781 -3.9140625 2.08984375 C-2.8614624 1.45357056 -2.8614624 1.45357056 -1.78759766 0.80444336 C-0.90273682 0.4062439 -0.90273682 0.4062439 0 0 Z " fill="#92EE99" transform="translate(271,283)"/>
<path d="M0 0 C0.66 0.33 1.32 0.66 2 1 C-4.59675106 5.78587822 -11.19603125 10.39867708 -19 13 C-19 12.34 -19 11.68 -19 11 C-16.04831775 8.84073544 -12.7985878 7.12500165 -9.625 5.3125 C-8.73554688 4.78849609 -7.84609375 4.26449219 -6.9296875 3.72460938 C-6.07890625 3.23412109 -5.228125 2.74363281 -4.3515625 2.23828125 C-3.56604004 1.78493408 -2.78051758 1.33158691 -1.97119141 0.86450195 C-1.32069824 0.57921631 -0.67020508 0.29393066 0 0 Z " fill="#8FEB94" transform="translate(270,62)"/>
<path d="M0 0 C0 0.33 0 0.66 0 1 C-1.670625 1.12375 -1.670625 1.12375 -3.375 1.25 C-7.05753944 1.57873787 -7.05753944 1.57873787 -8.4375 4.0625 C-8.623125 4.701875 -8.80875 5.34125 -9 6 C-9.99 5.67 -10.98 5.34 -12 5 C-12.99 5.495 -13.98 5.99 -15 6.5 C-15.99 6.995 -16.98 7.49 -18 8 C-18.99 7.67 -19.98 7.34 -21 7 C-13.82993743 2.24422245 -8.72659122 -1.01810231 0 0 Z " fill="#90ED93" transform="translate(303,48)"/>
<path d="M0 0 C-3.5087188 3.09592835 -6.49197399 4.74194623 -11 6 C-11 4.02 -11 2.04 -11 0 C-7.01803543 -1.05404945 -4.01804691 -0.84098656 0 0 Z " fill="#83F785" transform="translate(235,435)"/>
<path d="M0 0 C4.51451314 1.3489311 8.32277281 3.16618294 12.375 5.5625 C13.43460937 6.18253906 14.49421875 6.80257813 15.5859375 7.44140625 C16.38257813 7.95574219 17.17921875 8.47007812 18 9 C18 9.33 18 9.66 18 10 C16.35 10 14.7 10 13 10 C13 9.34 13 8.68 13 8 C8.6960081 6.25150329 4.35249409 4.6229639 0 3 C0 2.01 0 1.02 0 0 Z " fill="#85EC8D" transform="translate(268,362)"/>
<path d="M0 0 C4.91441412 1.43652105 9.00238358 3.54159615 13.375 6.125 C14.01566406 6.49753906 14.65632813 6.87007812 15.31640625 7.25390625 C16.88048477 8.16434002 18.44065534 9.08148191 20 10 C20 10.66 20 11.32 20 12 C15.18036138 11.1815708 11.64139183 8.26510881 7.65625 5.59375 C5.16807795 3.91624703 5.16807795 3.91624703 2.71875 3.46875 C2.1515625 3.3140625 1.584375 3.159375 1 3 C0.67 2.01 0.34 1.02 0 0 Z " fill="#90EE97" transform="translate(330,176)"/>
<path d="M0 0 C0 0.66 0 1.32 0 2 C-0.99 2.495 -0.99 2.495 -2 3 C-1.67 3.66 -1.34 4.32 -1 5 C-3.31 5 -5.62 5 -8 5 C-8.66 6.32 -9.32 7.64 -10 9 C-11.98 9 -13.96 9 -16 9 C-11.97806144 5.49702126 -5.60566856 0 0 0 Z " fill="#87F08B" transform="translate(201,103)"/>
<path d="M0 0 C0.66 0.33 1.32 0.66 2 1 C2 1.99 2 2.98 2 4 C0.06374902 4.98163422 -1.87404539 5.96022454 -3.8125 6.9375 C-5.43091797 7.75541016 -5.43091797 7.75541016 -7.08203125 8.58984375 C-10 10 -10 10 -13 11 C-12.67 10.01 -12.34 9.02 -12 8 C-10.35 7.67 -8.7 7.34 -7 7 C-7 6.34 -7 5.68 -7 5 C-4.4385343 2.70351351 -3.52032428 2 0 2 C0 1.34 0 0.68 0 0 Z " fill="#7CF581" transform="translate(193,234)"/>
<path d="M0 0 C-0.125 1.8125 -0.125 1.8125 -1 4 C-5.11409594 6.54682129 -9.36176246 7.79405824 -14 9 C-14 8.34 -14 7.68 -14 7 C-11.4453125 5.2734375 -11.4453125 5.2734375 -8.125 3.375 C-7.03445312 2.74335938 -5.94390625 2.11171875 -4.8203125 1.4609375 C-2 0 -2 0 0 0 Z " fill="#8CF394" transform="translate(186,222)"/>
<path d="M0 0 C1.27208622 0.62244599 2.54261882 1.24806767 3.8125 1.875 C4.52019531 2.22304687 5.22789062 2.57109375 5.95703125 2.9296875 C8 4 8 4 11 6 C11 6.66 11 7.32 11 8 C9.35 8 7.7 8 6 8 C6 7.34 6 6.68 6 6 C4.35 5.67 2.7 5.34 1 5 C0.67 3.35 0.34 1.7 0 0 Z " fill="#77F495" transform="translate(247,238)"/>
<path d="M0 0 C-0.99 0.66 -1.98 1.32 -3 2 C0.3 3.98 3.6 5.96 7 8 C3.86650268 9.04449911 3.01031744 8.93423645 0 8 C0 7.34 0 6.68 0 6 C-0.804375 5.7525 -1.60875 5.505 -2.4375 5.25 C-5 4 -5 4 -5.8125 1.875 C-5.874375 1.25625 -5.93625 0.6375 -6 0 C-3.50907189 -1.24546405 -2.58919267 -0.7767578 0 0 Z " fill="#8EEF93" transform="translate(128,165)"/>
<path d="M0 0 C0.66 0.33 1.32 0.66 2 1 C-3.61 4.3 -9.22 7.6 -15 11 C-15 10.01 -15 9.02 -15 8 C-13.02 7.34 -11.04 6.68 -9 6 C-9 5.34 -9 4.68 -9 4 C-7.54618103 3.30300448 -6.08677047 2.61766134 -4.625 1.9375 C-3.81289062 1.55464844 -3.00078125 1.17179688 -2.1640625 0.77734375 C-1.09285156 0.39255859 -1.09285156 0.39255859 0 0 Z " fill="#92ED95" transform="translate(176,135)"/>
<path d="M0 0 C1.051875 0.185625 2.10375 0.37125 3.1875 0.5625 C6.57119882 0.95079331 8.76425888 0.88247485 12 0 C8.86665115 2.53078176 5.75469813 4.51376532 2 6 C-0.375 5.1875 -0.375 5.1875 -2 4 C-2 3.34 -2 2.68 -2 2 C-1.34 2 -0.68 2 0 2 C0 1.34 0 0.68 0 0 Z " fill="#8DF590" transform="translate(132,266)"/>
<path d="M0 0 C3.3 1.65 6.6 3.3 10 5 C9.01 6.485 9.01 6.485 8 8 C7.01 7.67 6.02 7.34 5 7 C5.33 6.34 5.66 5.68 6 5 C4.02 5.66 2.04 6.32 0 7 C0 4.69 0 2.38 0 0 Z " fill="#91F694" transform="translate(235,231)"/>
<path d="M0 0 C0.598125 0.165 1.19625 0.33 1.8125 0.5 C4.11344336 1.1114124 4.11344336 1.1114124 7 1 C7 1.99 7 2.98 7 4 C8.98 4.66 10.96 5.32 13 6 C13 6.99 13 7.98 13 9 C8.02790438 7.23570801 3.56561939 4.6060834 -1 2 C-0.67 1.34 -0.34 0.68 0 0 Z " fill="#8EF292" transform="translate(265,267)"/>
<path d="M0 0 C3.79049707 1.42749981 7.27122456 3.16236542 10.8125 5.125 C12.27623047 5.93324219 12.27623047 5.93324219 13.76953125 6.7578125 C14.50558594 7.16773437 15.24164063 7.57765625 16 8 C16 8.66 16 9.32 16 10 C14.948125 9.566875 14.948125 9.566875 13.875 9.125 C10.94547497 7.97866412 7.99078347 6.97374346 5 6 C5 5.34 5 4.68 5 4 C2.525 3.01 2.525 3.01 0 2 C0 1.34 0 0.68 0 0 Z " fill="#8DED91" transform="translate(356,80)"/>
<path d="M0 0 C4.15481571 -0.49462092 5.66389071 -0.24199869 9.125 2.25 C13.87755102 6.79591837 13.87755102 6.79591837 16 9 C12.20950293 7.57250019 8.72877544 5.83763458 5.1875 3.875 C4.21167969 3.33617187 3.23585937 2.79734375 2.23046875 2.2421875 C1.49441406 1.83226562 0.75835937 1.42234375 0 1 C0 0.67 0 0.34 0 0 Z " fill="#8BEF98" transform="translate(236,252)"/>
<path d="M0 0 C0.66 0.33 1.32 0.66 2 1 C1.01 2.175625 1.01 2.175625 0 3.375 C-2.20201441 5.71512812 -2.20201441 5.71512812 -2 8 C-4.64 7.67 -7.28 7.34 -10 7 C-6.81404865 4.36021174 -3.69029454 1.89501612 0 0 Z " fill="#7EF187" transform="translate(117,150)"/>
<path d="M0 0 C0.66 0.33 1.32 0.66 2 1 C0.625 3 0.625 3 -1 5 C-1.66 5 -2.32 5 -3 5 C-5.0078864 5.64252365 -7.00882592 6.30741771 -9 7 C-9 7.66 -9 8.32 -9 9 C-10.32 8.67 -11.64 8.34 -13 8 C-10.880788 6.63594382 -8.75551882 5.28368225 -6.625 3.9375 C-6.02171875 3.54755859 -5.4184375 3.15761719 -4.796875 2.75585938 C-3.23507443 1.77539568 -1.62007786 0.88083925 0 0 Z " fill="#8AEF8F" transform="translate(222,422)"/>
<path d="M0 0 C0.66 0.33 1.32 0.66 2 1 C1.3515625 2.921875 1.3515625 2.921875 0 5 C-2.6015625 5.828125 -2.6015625 5.828125 -5.625 6.25 C-6.62789062 6.39953125 -7.63078125 6.5490625 -8.6640625 6.703125 C-9.82035156 6.85007812 -9.82035156 6.85007812 -11 7 C-7.54143152 4.05004453 -4.19978515 1.77324262 0 0 Z " fill="#7CF28B" transform="translate(221,312)"/>
<path d="M0 0 C1.81612488 0.95144598 3.62781081 1.91136933 5.4375 2.875 C6.44683594 3.40867188 7.45617187 3.94234375 8.49609375 4.4921875 C11 6 11 6 12 8 C9.03 7.67 6.06 7.34 3 7 C3 6.01 3 5.02 3 4 C2.01 3.34 1.02 2.68 0 2 C0 1.34 0 0.68 0 0 Z " fill="#7CF194" transform="translate(271,141)"/>
<path d="M0 0 C2.0625 0.4375 2.0625 0.4375 4 1 C1.56969216 2.53351528 -0.86805103 4.05183502 -3.3125 5.5625 C-4.00279297 6.00013672 -4.69308594 6.43777344 -5.40429688 6.88867188 C-6.07138672 7.29794922 -6.73847656 7.70722656 -7.42578125 8.12890625 C-8.34484253 8.70233765 -8.34484253 8.70233765 -9.2824707 9.28735352 C-11 10 -11 10 -14 9 C-13.07316406 8.43410156 -12.14632813 7.86820313 -11.19140625 7.28515625 C-9.98172588 6.54434424 -8.77209291 5.80345482 -7.5625 5.0625 C-6.95083984 4.68931641 -6.33917969 4.31613281 -5.70898438 3.93164062 C-2.68972694 2.18538519 -2.68972694 2.18538519 0 0 Z " fill="#89EC91" transform="translate(363,137)"/>
<path d="M0 0 C-0.33 0.66 -0.66 1.32 -1 2 C-0.34 2 0.32 2 1 2 C1 2.66 1 3.32 1 4 C1.99 4 2.98 4 4 4 C4.33 4.99 4.66 5.98 5 7 C0.69235185 5.43358249 -3.06171464 3.31663844 -7 1 C-7 0.67 -7 0.34 -7 0 C-2.25 -1.125 -2.25 -1.125 0 0 Z " fill="#87F08D" transform="translate(363,99)"/>
<path d="M0 0 C-1.23944276 0.86941494 -2.49207059 1.72005457 -3.75 2.5625 C-4.44609375 3.03816406 -5.1421875 3.51382812 -5.859375 4.00390625 C-8 5 -8 5 -10.203125 4.83984375 C-10.79609375 4.56269531 -11.3890625 4.28554688 -12 4 C-12.33 3.01 -12.66 2.02 -13 1 C-12.01 0.67 -11.02 0.34 -10 0 C-10 0.66 -10 1.32 -10 2 C-8.906875 1.484375 -7.81375 0.96875 -6.6875 0.4375 C-3 -1 -3 -1 0 0 Z " fill="#86F28A" transform="translate(295,401)"/>
<path d="M0 0 C0.66 0.33 1.32 0.66 2 1 C1.67 2.98 1.34 4.96 1 7 C0.01 6.67 -0.98 6.34 -2 6 C-2 5.34 -2 4.68 -2 4 C-3.65 4.66 -5.3 5.32 -7 6 C-7 5.34 -7 4.68 -7 4 C-1.7265625 0.77734375 -1.7265625 0.77734375 0 0 Z " fill="#88F48C" transform="translate(165,344)"/>
<path d="M0 0 C0.33 0 0.66 0 1 0 C1.66 2.64 2.32 5.28 3 8 C-0.59391114 6.66511872 -3.75490696 5.03977277 -7 3 C-3.25 1.875 -3.25 1.875 -1 3 C-0.67 2.01 -0.34 1.02 0 0 Z " fill="#85F187" transform="translate(177,322)"/>
<path d="M0 0 C1.98 0 3.96 0 6 0 C6 0.66 6 1.32 6 2 C6.763125 2.28875 7.52625 2.5775 8.3125 2.875 C11 4 11 4 14 6 C13.67 6.66 13.34 7.32 13 8 C8.71 5.69 4.42 3.38 0 1 C0 0.67 0 0.34 0 0 Z " fill="#8BED90" transform="translate(361,213)"/>
<path d="M0 0 C3.3 1.65 6.6 3.3 10 5 C10 5.66 10 6.32 10 7 C9.236875 6.690625 8.47375 6.38125 7.6875 6.0625 C5.81210323 5.32106407 3.91315348 4.63771783 2 4 C1.34 4.66 0.68 5.32 0 6 C-0.66 5.67 -1.32 5.34 -2 5 C-1.34 3.35 -0.68 1.7 0 0 Z " fill="#88F496" transform="translate(236,121)"/>
<path d="M0 0 C3.96 1.98 7.92 3.96 12 6 C9.07175348 6.97608217 7.04386724 7.08226668 4 7 C3.566875 6.0409375 3.566875 6.0409375 3.125 5.0625 C2.17176549 2.84793921 2.17176549 2.84793921 0 2 C0 1.34 0 0.68 0 0 Z " fill="#87F08C" transform="translate(186,425)"/>
<path d="M0 0 C1.65 0 3.3 0 5 0 C4.67 0.66 4.34 1.32 4 2 C3.34 2 2.68 2 2 2 C2 2.66 2 3.32 2 4 C3.423125 4.4640625 3.423125 4.4640625 4.875 4.9375 C8 6 8 6 10 7 C9.67 7.66 9.34 8.32 9 9 C6.17085161 8.26532365 3.53967412 7.46581614 1 6 C0 2.8125 0 2.8125 0 0 Z " fill="#88EE8E" transform="translate(122,386)"/>
<path d="M0 0 C1.98 0 3.96 0 6 0 C-2.44827586 7 -2.44827586 7 -6 7 C-6 6.34 -6 5.68 -6 5 C-5.01 5 -4.02 5 -3 5 C-3 4.34 -3 3.68 -3 3 C-2.34 3 -1.68 3 -1 3 C-0.67 2.01 -0.34 1.02 0 0 Z " fill="#85F089" transform="translate(357,250)"/>
<path d="M0 0 C1.134375 0.020625 2.26875 0.04125 3.4375 0.0625 C0.23759492 2.80527578 -2.56749382 4.6927836 -6.5625 6.0625 C-4.25951087 0.07472826 -4.25951087 0.07472826 0 0 Z " fill="#8BF091" transform="translate(332.5625,154.9375)"/>
<path d="M0 0 C0.33 0.99 0.66 1.98 1 3 C-3.455 5.97 -3.455 5.97 -8 9 C-8.66 8.67 -9.32 8.34 -10 8 C-9.34 7.01 -8.68 6.02 -8 5 C-7.34 5.33 -6.68 5.66 -6 6 C-6 5.34 -6 4.68 -6 4 C-5.38125 3.896875 -4.7625 3.79375 -4.125 3.6875 C-1.63473516 3.12474627 -1.63473516 3.12474627 0 0 Z " fill="#8EEE93" transform="translate(305,391)"/>
<path d="M0 0 C0.66 0.33 1.32 0.66 2 1 C-1.60809503 5.75612527 -6.47436423 6.60804595 -12 8 C-9.72254211 5.51017465 -7.37664762 3.89631003 -4.4375 2.25 C-3.65246094 1.80140625 -2.86742187 1.3528125 -2.05859375 0.890625 C-1.37925781 0.59671875 -0.69992188 0.3028125 0 0 Z " fill="#8DEE91" transform="translate(251,184)"/>
<path d="M0 0 C1.65 0.33 3.3 0.66 5 1 C1.81516089 3.63886669 -1.2898821 6.14494105 -5 8 C-5.99 7.67 -6.98 7.34 -8 7 C-7.50628906 6.66226563 -7.01257813 6.32453125 -6.50390625 5.9765625 C-5.86324219 5.53054687 -5.22257812 5.08453125 -4.5625 4.625 C-3.92441406 4.18414062 -3.28632813 3.74328125 -2.62890625 3.2890625 C-0.86259072 2.07839147 -0.86259072 2.07839147 0 0 Z " fill="#8BF090" transform="translate(277,185)"/>
<path d="M0 0 C0.99 0.33 1.98 0.66 3 1 C1.77065985 4.68802044 0.06140622 5.72356973 -3 8 C-4.32 7.34 -5.64 6.68 -7 6 C-6.4946875 5.65066406 -5.989375 5.30132812 -5.46875 4.94140625 C-4.8190625 4.48636719 -4.169375 4.03132812 -3.5 3.5625 C-2.8503125 3.11003906 -2.200625 2.65757812 -1.53125 2.19140625 C-0.77328125 1.60166016 -0.77328125 1.60166016 0 1 C0 0.67 0 0.34 0 0 Z " fill="#95F297" transform="translate(279,166)"/>
<path d="M0 0 C0.268125 0.639375 0.53625 1.27875 0.8125 1.9375 C1.88667752 4.33131686 1.88667752 4.33131686 5 5 C5.33 6.32 5.66 7.64 6 9 C3.03 7.35 0.06 5.7 -3 4 C-3 3.34 -3 2.68 -3 2 C-2.01 2 -1.02 2 0 2 C0 1.34 0 0.68 0 0 Z " fill="#81F088" transform="translate(102,391)"/>
<path d="M0 0 C1.32 0.33 2.64 0.66 4 1 C0.37 3.31 -3.26 5.62 -7 8 C-7.33 6.68 -7.66 5.36 -8 4 C-6.5459375 3.814375 -6.5459375 3.814375 -5.0625 3.625 C-3.5465625 3.315625 -3.5465625 3.315625 -2 3 C-1.67 2.34 -1.34 1.68 -1 1 C-0.67 0.67 -0.34 0.34 0 0 Z " fill="#81F18E" transform="translate(227,326)"/>
<path d="M0 0 C2.97 0.495 2.97 0.495 6 1 C6 1.66 6 2.32 6 3 C6.99 3 7.98 3 9 3 C9 3.66 9 4.32 9 5 C9.99 5 10.98 5 12 5 C12 5.66 12 6.32 12 7 C7.69235185 5.43358249 3.93828536 3.31663844 0 1 C0 0.67 0 0.34 0 0 Z " fill="#85ED8D" transform="translate(144,420)"/>
<path d="M0 0 C4.12838068 0.60711481 7.40422382 1.87522317 11 4 C11.33 4.99 11.66 5.98 12 7 C7.69235185 5.43358249 3.93828536 3.31663844 0 1 C0 0.67 0 0.34 0 0 Z " fill="#89ED8C" transform="translate(241,365)"/>
<path d="M0 0 C0.33 0.66 0.66 1.32 1 2 C2.98 2 4.96 2 7 2 C1.85714286 6.42857143 1.85714286 6.42857143 -2 7 C-1.34 4.69 -0.68 2.38 0 0 Z " fill="#88F38D" transform="translate(209,444)"/>
<path d="M0 0 C4.30764815 1.56641751 8.06171464 3.68336156 12 6 C8.37673261 7.2077558 7.35853631 6.54311128 4 5 C4 4.34 4 3.68 4 3 C2.68 2.67 1.36 2.34 0 2 C0 1.34 0 0.68 0 0 Z " fill="#84ED8E" transform="translate(220,334)"/>
<path d="M0 0 C2.00720923 0.28674418 4.0085944 0.61866701 6 1 C6.33 2.65 6.66 4.3 7 6 C5.68 5.34 4.36 4.68 3 4 C3 3.34 3 2.68 3 2 C1.68 1.67 0.36 1.34 -1 1 C-0.67 0.67 -0.34 0.34 0 0 Z " fill="#73FA73" transform="translate(128,186)"/>
<path d="M0 0 C3.96 1.98 3.96 1.98 8 4 C7.67 4.66 7.34 5.32 7 6 C4.69 5.34 2.38 4.68 0 4 C0 2.68 0 1.36 0 0 Z " fill="#8AF28E" transform="translate(345,73)"/>
<path d="M0 0 C4.48123828 0.71292427 8.69742362 1.56580787 13 3 C10.17998673 4.41000664 8.12992745 4.24548451 5 4 C2.125 2.5625 2.125 2.5625 0 1 C0 0.67 0 0.34 0 0 Z " fill="#8BE992" transform="translate(194,449)"/>
<path d="M0 0 C-1 3 -1 3 -4.375 4.75 C-8 6 -8 6 -11 5 C-9.73461631 4.15841464 -8.46246221 3.32700252 -7.1875 2.5 C-6.47980469 2.0359375 -5.77210938 1.571875 -5.04296875 1.09375 C-3 0 -3 0 0 0 Z " fill="#97F19A" transform="translate(379,222)"/>
<path d="M0 0 C2.17532857 2.17532857 2.3662254 3.10274469 3 6 C3.33 6.66 3.66 7.32 4 8 C1.5625 7.25 1.5625 7.25 -1 6 C-1.8125 3.875 -1.8125 3.875 -2 2 C-1.34 2 -0.68 2 0 2 C0 1.34 0 0.68 0 0 Z " fill="#7FF484" transform="translate(342,196)"/>
<path d="M0 0 C3.3 1.65 6.6 3.3 10 5 C10 5.66 10 6.32 10 7 C6.4124787 5.66749209 3.1635377 4.169283 0 2 C0 1.34 0 0.68 0 0 Z " fill="#88EE98" transform="translate(303,49)"/>
<path d="M0 0 C-2.35277269 2.72426311 -4.62496331 3.8141763 -8 5 C-7.625 3.0625 -7.625 3.0625 -7 1 C-4.53721199 -0.231394 -2.7204945 -0.07159196 0 0 Z " fill="#86F38A" transform="translate(250,315)"/>
<path d="M0 0 C0.99 0.33 1.98 0.66 3 1 C2.67 1.66 2.34 2.32 2 3 C1.01 3 0.02 3 -1 3 C-1 3.66 -1 4.32 -1 5 C-2.98 5.33 -4.96 5.66 -7 6 C-4.82575883 3.49962266 -3.26954202 2.56371414 0 2 C0 1.34 0 0.68 0 0 Z " fill="#8EF093" transform="translate(280,388)"/>
<path d="M0 0 C2.64 0.66 5.28 1.32 8 2 C8.33 3.32 8.66 4.64 9 6 C5.06326356 4.68775452 2.77280706 3.08089673 0 0 Z " fill="#92F397" transform="translate(222,243)"/>
<path d="M0 0 C1.65 0.99 3.3 1.98 5 3 C2.94766315 5.2477975 1.99332739 6.0022242 -1 7 C-1.33 6.34 -1.66 5.68 -2 5 C-1.01 5 -0.02 5 1 5 C1 4.01 1 3.02 1 2 C0.34 1.67 -0.32 1.34 -1 1 C-0.67 0.67 -0.34 0.34 0 0 Z " fill="#82F685" transform="translate(261,192)"/>
<path d="M0 0 C3.96 1.98 3.96 1.98 8 4 C7.34 4.66 6.68 5.32 6 6 C4.68 6 3.36 6 2 6 C1.34 4.02 0.68 2.04 0 0 Z " fill="#9BF29C" transform="translate(219,111)"/>
<path d="M0 0 C1.32 0.33 2.64 0.66 4 1 C1.03 2.65 -1.94 4.3 -5 6 C-4.67 4.68 -4.34 3.36 -4 2 C-2.68 2 -1.36 2 0 2 C0 1.34 0 0.68 0 0 Z " fill="#89EF8B" transform="translate(277,297)"/>
<path d="M0 0 C-3.96 1.98 -3.96 1.98 -8 4 C-7.67 2.68 -7.34 1.36 -7 0 C-3.98968256 -0.93423645 -3.13349732 -1.04449911 0 0 Z " fill="#8CF291" transform="translate(152,262)"/>
<path d="M0 0 C0.99 0.33 1.98 0.66 3 1 C3 1.99 3 2.98 3 4 C3.66 4 4.32 4 5 4 C4.67 4.66 4.34 5.32 4 6 C3.01 6 2.02 6 1 6 C0.67 6.66 0.34 7.32 0 8 C-0.33 6.68 -0.66 5.36 -1 4 C-0.34 4 0.32 4 1 4 C1.33 3.34 1.66 2.68 2 2 C1.34 2 0.68 2 0 2 C0 1.34 0 0.68 0 0 Z " fill="#7DF483" transform="translate(353,78)"/>
<path d="M0 0 C-0.33 0.99 -0.66 1.98 -1 3 C-4.5625 4.1875 -4.5625 4.1875 -8 5 C-8 4.34 -8 3.68 -8 3 C-2.25 0 -2.25 0 0 0 Z " fill="#92EF93" transform="translate(235,416)"/>
<path d="M0 0 C1.32 0.33 2.64 0.66 4 1 C3.67 2.32 3.34 3.64 3 5 C0.525 4.01 0.525 4.01 -2 3 C-1.34 2.01 -0.68 1.02 0 0 Z " fill="#87F487" transform="translate(146,307)"/>
<path d="M0 0 C1.98 0 3.96 0 6 0 C3.31158141 2.25245881 1.35358125 3.88213958 -2 5 C-2 4.34 -2 3.68 -2 3 C-1.34 3 -0.68 3 0 3 C0 2.01 0 1.02 0 0 Z " fill="#8AF18D" transform="translate(324,269)"/>
<path d="M0 0 C1.98 0.99 3.96 1.98 6 3 C6 3.99 6 4.98 6 6 C4.125 5.8125 4.125 5.8125 2 5 C0.75 2.4375 0.75 2.4375 0 0 Z " fill="#9BF59E" transform="translate(280,257)"/>
<path d="M0 0 C0.66 0 1.32 0 2 0 C0.74874616 3.75376152 -0.5652404 4.24073289 -4 6 C-4.66 6 -5.32 6 -6 6 C-5.67 5.01 -5.34 4.02 -5 3 C-3.35 2.67 -1.7 2.34 0 2 C0 1.34 0 0.68 0 0 Z " fill="#8FF292" transform="translate(186,239)"/>
<path d="M0 0 C3.48539917 0.64544429 6.02819057 2.10134397 9 4 C6 5 6 5 4 5 C2.61767557 3.37373596 1.28062485 1.7074998 0 0 Z " fill="#87EE8C" transform="translate(352,189)"/>
<path d="M0 0 C-6.75 4 -6.75 4 -9 4 C-8.67 3.01 -8.34 2.02 -8 1 C-2.59770115 -1.29885057 -2.59770115 -1.29885057 0 0 Z " fill="#89F08C" transform="translate(178,136)"/>
<path d="M0 0 C2.31 0 4.62 0 7 0 C2.25 3.875 2.25 3.875 0 5 C0 3.35 0 1.7 0 0 Z " fill="#7DF28F" transform="translate(220,107)"/>
</svg>
